<?xml version="1.0" encoding="utf-8"?>
<!-- Generator: Adobe Illustrator 14.0.0, SVG Export Plug-In  -->
<!DOCTYPE svg PUBLIC "-//W3C//DTD SVG 1.1//EN" "http://www.w3.org/Graphics/SVG/1.1/DTD/svg11.dtd" [
	<!ENTITY ns_flows "http://ns.adobe.com/Flows/1.0/">
]>
<svg version="1.1"
	 xmlns="http://www.w3.org/2000/svg" xmlns:xlink="http://www.w3.org/1999/xlink" xmlns:a="http://ns.adobe.com/AdobeSVGViewerExtensions/3.0/"
	 x="0px" y="0px" width="109px" height="53px" viewBox="-0.82 -0.587 109 53" enable-background="new -0.82 -0.587 109 53"
	 xml:space="preserve">
<defs>
</defs>
<path fill="none" stroke="#BDF271" stroke-width="2" d="M6.166,46.036c0,0,17.715-12.902,24.647-11.765
	c6.932,1.14,8.858,6.831,13.479,6.452s4.622-17.838,23.108-5.313"/>
<line fill="none" stroke="#BDF271" stroke-width="2" x1="70.867" y1="31.363" x2="84.153" y2="50.401"/>
<path fill="none" stroke="#01A2A6" stroke-width="2" d="M40.842,23.961c0,0,4.621-3.985,9.242-3.985s31.733,30.935,31.733,30.935
	H2.088c0,0,26.576-33.022,31.776-33.591c5.2-0.569,5.244,8.348,9.866,8.918"/>
<path fill="none" stroke="#01A2A6" stroke-width="2" d="M67.401,35.411c0,0,6.932-9.109,14.634-9.489
	c7.703-0.379,23.493,25.048,23.493,25.048H80.879"/>
<path fill="none" stroke="#01A2A6" stroke-width="2" d="M80.612,10.393c0.245-0.715,0.379-1.48,0.379-2.276
	c0-3.93-3.232-7.116-7.22-7.116c-2.183,0-4.137,0.956-5.461,2.464c-0.47-0.122-0.963-0.188-1.471-0.188
	c-3.191,0-5.777,2.549-5.777,5.694c0,0.49,0.063,0.967,0.183,1.422H80.612z"/>
</svg>
