<?xml version="1.0" encoding="utf-8"?>
<!-- Generator: Adobe Illustrator 14.0.0, SVG Export Plug-In  -->
<!DOCTYPE svg PUBLIC "-//W3C//DTD SVG 1.1//EN" "http://www.w3.org/Graphics/SVG/1.1/DTD/svg11.dtd" [
	<!ENTITY ns_flows "http://ns.adobe.com/Flows/1.0/">
]>
<svg version="1.1"
	 xmlns="http://www.w3.org/2000/svg" xmlns:xlink="http://www.w3.org/1999/xlink" xmlns:a="http://ns.adobe.com/AdobeSVGViewerExtensions/3.0/"
	 x="0px" y="0px" width="450px" height="249px" viewBox="-0.4 -0.3 450 249" enable-background="new -0.4 -0.3 450 249"
	 xml:space="preserve">
<defs>
</defs>
<g>
	<g>
		<path fill="#2F2933" d="M97.9,124.1c-0.5,0-0.9-0.3-1.1-0.8l0,0c-0.4-1.2-0.6-2.4-0.6-3.8l0,0c0-4.8,3-9,7.2-10.9l0,0
			c0.3-9.1,8.1-16.3,17.7-16.3l0,0c6,0,11.2,2.8,14.5,7.1l0,0c1.2-0.5,2.5-0.8,3.9-0.8l0,0c4.5,0,8.4,2.8,9.7,6.7l0,0
			c0.3,0,0.5,0,0.8,0l0,0c8.2,0,14.9,6.3,14.9,14.2l0,0c0,1.3-0.2,2.5-0.5,3.7l0,0c-0.1,0.5-0.6,0.8-1.1,0.8l0,0H97.9L97.9,124.1z
			 M163.2,123v-1.1V123L163.2,123z M162.3,121.9c0.2-0.7,0.2-1.5,0.2-2.3l0,0c0-3.3-1.4-6.3-3.7-8.5l0,0c-2.3-2.2-5.4-3.5-8.9-3.5
			l0,0c-0.5,0-1,0-1.5,0.1l0,0c-0.6,0.1-1.1-0.3-1.3-0.9l0,0c-0.8-3.4-3.9-5.9-7.7-5.9l0,0c-1.4,0-2.7,0.3-3.8,0.9l0,0
			c-0.5,0.3-1.2,0.1-1.5-0.4l0,0c-2.7-4.1-7.6-6.9-13.1-6.9l0,0c-4.3,0-8.1,1.6-10.9,4.3l0,0c-2.8,2.7-4.5,6.3-4.5,10.4l0,0
			c0,0,0,0.1,0,0.1l0,0c0,0.5-0.3,0.9-0.7,1l0,0c-3.8,1.5-6.5,5-6.5,9.2l0,0c0,0.8,0.1,1.6,0.3,2.3l0,0H162.3L162.3,121.9z"/>
	</g>
</g>
<path fill="none" stroke="#10273D" stroke-linecap="round" stroke-linejoin="round" d="M185.2,101.2c0,1.8-1.6,3.3-3.5,3.3h-9.7
	c-1.9,0-3.5-1.5-3.5-3.3l0,0c0-1.8,1.6-3.3,3.5-3.3h9.7C183.6,97.9,185.2,99.3,185.2,101.2L185.2,101.2z"/>
<path fill="none" stroke="#10273D" stroke-linecap="round" stroke-linejoin="round" d="M378.9,82.7c-2.1,0-4.1,0.5-5.8,1.3
	c-0.2-4.2-3.5-7.6-7.7-8.2c-2.1-7.9-9.5-13.8-18.5-13.8c-8.1,0-15,4.8-17.7,11.6c-0.1,0-0.3,0-0.4,0c-8.4,0-15.5,5.4-17.6,12.8
	c-1.5-0.3-3-0.4-4.5-0.4c-8.3,0-15.5,4.3-19.2,10.7h104.4c0.1-0.5,0.1-1.1,0.1-1.7C391.9,88.2,386.1,82.7,378.9,82.7z"/>
<path fill="#FFFFFF" d="M354,62.8l-3.5,40.8l22.5,0.8c0,0,0.9-35.1-2.2-40C367.9,59.5,354,62.8,354,62.8z"/>
<ellipse fill="#10273D" cx="241.5" cy="55.7" rx="1.3" ry="1.2"/>
<ellipse fill="#10273D" cx="155.6" cy="52.4" rx="1.3" ry="1.2"/>
<ellipse fill="#10273D" cx="275" cy="1.2" rx="1.3" ry="1.2"/>
<ellipse fill="#10273D" cx="285.9" cy="74.3" rx="1.3" ry="1.2"/>
<ellipse fill="#10273D" cx="253" cy="89.9" rx="1.3" ry="1.2"/>
<ellipse fill="#10273D" cx="334.3" cy="31.4" rx="1.3" ry="1.2"/>
<ellipse fill="#10273D" cx="154.3" cy="80" rx="1.3" ry="1.2"/>
<ellipse fill="#10273D" cx="84.6" cy="136.6" rx="1.3" ry="1.2"/>
<ellipse fill="#10273D" cx="102.8" cy="44.6" rx="1.3" ry="1.2"/>
<ellipse fill="#10273D" cx="176.4" cy="10.3" rx="1.3" ry="1.2"/>
<ellipse fill="#29D9C2" cx="388.4" cy="119.2" rx="1.3" ry="1.2"/>
<ellipse fill="#29D9C2" cx="224" cy="17.7" rx="1.3" ry="1.2"/>
<ellipse fill="#29D9C2" cx="195.9" cy="56.9" rx="1.3" ry="1.2"/>
<ellipse fill="#29D9C2" cx="72.9" cy="68.5" rx="1.3" ry="1.2"/>
<path fill="#FFFFFF" d="M251.3,143.6c0,0-34-38-47.3-52.3c-14.6-15.7-20.1,4.7-27.7,2.7c-15-3.9-73.3,71-75,72.1"/>
<path fill="#BDF271" d="M184.9,89.7c0,0-9.8,28.6-9.8,34.7c0,6.1,4.6,14.9,4.6,14.9l-6.3-4.4c0,0,1.2,3.9,1.2,7.2s9.2,7.1,8.7,11.6
	c-0.6,4.4,5.2,4.4,5.2,4.4l-2.3,7.2l6,0.7l9.4-3.9l-10.1-0.7l23.5-11.2l32.3-0.7l1.9-7.3c0,0-27.1-30.3-34-37.4
	c-6.9-7.2-16.2-20.9-21.9-18.7C187.2,88,184.9,89.7,184.9,89.7z"/>
<g>
	<g>
		<path fill="#2F2933" d="M100.3,166.8c-0.3-0.5-0.2-1.1,0.2-1.5l0,0c0,0,0,0,0,0l0,0c0.1-0.1,0.2-0.2,0.3-0.3l0,0
			c0.2-0.3,0.6-0.6,1-1.1l0,0c0.8-0.9,1.9-2.3,3.3-4l0,0c2.8-3.3,6.6-7.9,11-13.1l0,0c8.9-10.5,20.3-23.5,30.9-34.1l0,0
			c7.1-7.1,13.9-13.1,19.5-16.6l0,0c3.2-2,6-3.2,8.5-3.2l0,0c0.5,0,1,0.1,1.5,0.2l0,0c0.3,0.1,0.5,0.1,0.7,0.1l0,0
			c0.7,0,1.4-0.2,2.2-0.7l0,0c0.8-0.4,1.7-1.1,2.6-1.9l0,0c1.8-1.5,3.8-3.4,6.1-4.8l0,0c1.6-0.9,3.4-1.5,5.4-1.5l0,0
			c3.4,0,7.1,1.8,11.3,6.3l0,0c13.3,14.3,47.3,52.3,47.3,52.3l0,0h0c0.4,0.5,0.4,1.2-0.1,1.6l0,0c-0.5,0.4-1.2,0.3-1.6-0.1l0,0
			c0,0-2.1-2.4-5.5-6.2l0,0c-3.4-3.8-8.1-9-13.2-14.6l0,0c-10.2-11.3-22-24.3-28.6-31.5l0,0c-4-4.3-7.1-5.6-9.5-5.6l0,0
			c-2.2,0-4.2,1.1-6.2,2.6l0,0c-2,1.5-3.8,3.4-5.7,4.7l0,0c-1.3,0.9-2.7,1.6-4.3,1.6l0,0c-0.4,0-0.9-0.1-1.3-0.2l0,0
			c-0.3-0.1-0.6-0.1-0.9-0.1l0,0c-1.5,0-3.8,0.8-6.6,2.5l0,0c-2.7,1.6-5.9,4-9.3,6.9l0,0c-6.8,5.8-14.5,13.7-22.1,21.8l0,0
			c-15.1,16.4-29.3,34-33.7,39.2l0,0c-0.6,0.7-1,1.1-1.3,1.4l0,0c-0.1,0.1-0.1,0.1-0.3,0.2l0,0c-0.2,0.1-0.4,0.2-0.6,0.2l0,0
			C100.9,167.3,100.5,167.1,100.3,166.8L100.3,166.8z"/>
	</g>
</g>
<path fill="#BDF271" d="M304.9,116.7c0,0-1.4,8.8-1.4,11.3s4.3,3,5.2,6.1c0.9,3,2,9.4,2,9.4s-3.5-7.7-5.2-8.5
	c-1.7-0.8-2.9-1.7-2.9-1.7s3.2,4.7,3.5,7.7s2,6.9,2,6.9s0.6,6.3,0.9,9.6c0.3,3.3,6.6,8.8,6.6,8.8h50.2c0,0-32.5-46.5-51.1-50.6
	C307.2,113.9,304.9,116.7,304.9,116.7z"/>
<path fill="none" stroke="#10273D" stroke-linecap="round" stroke-linejoin="round" d="M215.3,179.5c0,0,57.4-58.8,65.2-62.1
	c7.8-3.3,10.4,4.1,30.7-2.1c17.4-5.3,67.7,65.8,67.7,65.8L215.3,179.5z"/>
<path fill="#BDF271" d="M271.5,165.6c0,0,2.3-12.7,2.9-14c0.6-1.4,6.9-8.3,7.8-11.3c0.9-3,2.6-8,2.6-8s-1.4,14-3.8,18.4
	c-2.3,4.4-0.9,14.9-0.9,14.9H271.5z"/>
<path fill="#BDF271" d="M287.9,165.1c0,0,2-11.3,2-12.9c0-1.6,1.7-13.8,2-16.8s1.4-11,1.4-11s1.2,21.7,0.6,25.6
	c-0.6,3.8,0.3,5.5,0.6,7.2c0.3,1.7-0.6,8.3-0.6,8.3L287.9,165.1z"/>
<path fill="#FFFFFF" d="M321.6,135.8c0,0,3.5,2.1,4.3,7.4s6.1,7.8,6.1,7.8l-7.8-3.3C324.2,147.7,324.6,142,321.6,135.8z"/>
<path fill="#FFFFFF" d="M193.3,101.8c0,0,8.9,4.4,9.8,8.5c0.9,4.1,0.8,8.1,0.8,8.1s3.5,0,4.3,1.7c0.9,1.6,4.8,10.3,4.8,10.3
	s-6.5-7-8.2-8.3c-1.7-1.2-3.4-11.4-4.3-12.7C199.6,108.3,193.3,101.8,193.3,101.8z"/>
<path fill="#FFFFFF" d="M197.9,157.1c0,0-7.2-6.1-7.8-11c-0.6-5-2.6-9.9-2.6-9.9l-7.8-9.6c0,0,11.8,5.5,12.4,8.5
	c0.6,3,9.2,21.5,9.2,21.5L197.9,157.1z"/>
<polygon fill="#BDF271" points="152.6,165.1 164.1,121.6 159,166.7 "/>
<polygon fill="#BDF271" points="121.8,165.9 141.8,146.1 128.8,164.2 "/>
<polygon fill="#FFFFFF" points="208,149.7 226.5,141.4 247,149.3 242.6,151.1 261.3,161.2 253.4,161.2 262.4,165.8 350.2,165.8 
	350.8,145 350.5,136.7 373,169.5 292.5,189.3 197,182.1 "/>
<polygon fill="#29D9C2" points="189.6,166 94.4,165.2 62.8,191.1 184.4,191.1 184.4,175.2 174.8,174.7 "/>
<polygon fill="#29D9C2" points="262.5,166 357.7,165.2 389.2,191.1 267.7,191.1 267.7,175.2 277.2,174.7 "/>
<polygon fill="#29D9C2" points="196.2,164.5 249.2,164.5 268.3,174.4 275.8,173.9 252.1,161.2 199.6,160.9 "/>
<polygon fill="#29D9C2" points="213.5,150.2 238.9,150.2 258.8,160.1 250.4,161.2 235.4,153.5 209.4,153.5 "/>
<polygon fill="#29D9C2" points="225.9,142.2 230.8,149.9 243.5,148.8 "/>
<polygon fill="#29D9C2" points="186.6,180.5 211.7,180.5 267.4,180.5 267.7,175.2 186.1,175.2 "/>
<polygon fill="#29D9C2" points="205.7,183.5 246.4,183.5 241.7,179.6 211.7,180.5 "/>
<polygon fill="#29D9C2" points="237.8,196 237.8,208.5 254.9,208.5 254.9,195.5 "/>
<polygon fill="#29D9C2" points="218.6,196 218.6,208.5 235.7,208.5 235.7,195.5 "/>
<polygon fill="#29D9C2" points="199.5,196 199.5,208.5 216.7,208.5 216.7,195.5 "/>
<polygon fill="#29D9C2" points="200.1,221.2 200.1,242.5 203.7,242.5 203.7,220.2 "/>
<polygon fill="#29D9C2" points="219.2,221.2 219.2,242.5 222.7,242.5 222.7,220.2 "/>
<polygon fill="#29D9C2" points="238.3,221.2 238.3,242.5 241.9,242.5 241.9,220.2 "/>
<polygon fill="#A6D1E7" points="256.9,221.2 256.9,242.5 260.5,242.5 260.5,220.2 "/>
<polygon fill="#01A2A6" points="277.6,191.3 277.6,197 268.2,197 268.2,190.4 "/>
<polygon fill="#01A2A6" points="277.6,238.6 277.6,245.9 268.2,245.9 268.2,237.4 "/>
<polygon fill="#01A2A6" points="274.7,197.1 274.7,213.3 268,213.3 268.4,197.1 "/>
<polygon fill="#01A2A6" points="274.7,217.1 274.7,238.6 268,238.6 268.4,217.1 "/>
<polygon fill="#01A2A6" points="276.8,213.9 276.8,217.3 268.6,216.8 269,213 "/>
<rect x="272.2" y="217.5" fill="#01A2A6" width="107.5" height="1.5"/>
<rect x="273.8" y="196.4" fill="#29D9C2" width="106" height="4"/>
<rect x="284.5" y="201.2" fill="#29D9C2" width="6" height="7.9"/>
<rect x="302.1" y="201.2" fill="#29D9C2" width="6" height="7.9"/>
<rect x="354.6" y="201.2" fill="#A6D1E7" width="6" height="7.9"/>
<rect x="164.3" y="201.2" fill="#29D9C2" width="6" height="7.9"/>
<rect x="137.9" y="201.2" fill="#29D9C2" width="6" height="7.9"/>
<rect x="120.2" y="201.2" fill="#29D9C2" width="6" height="7.9"/>
<rect x="111.5" y="201.2" fill="#29D9C2" width="6" height="7.9"/>
<rect x="277.5" y="221.7" fill="#A6D1E7" width="8.4" height="11.6"/>
<rect x="141.4" y="221.7" fill="#29D9C2" width="8.4" height="11.6"/>
<rect x="114.2" y="221.7" fill="#29D9C2" width="8.4" height="11.6"/>
<rect x="331.8" y="221.7" fill="#A6D1E7" width="8.4" height="11.6"/>
<polygon fill="#29D9C2" points="249.5,178.5 261.9,187.6 261.9,190.1 263.4,190.1 263.4,196.8 261.9,196.8 261.9,206.4 263.1,206.4 
	263.1,213.7 262.1,213.7 262.1,216.9 263.2,216.9 263.2,242.3 257.6,241.5 257.8,224.2 258.8,223.5 258.5,211.4 257.9,208 
	255.7,192.4 255.6,188.2 240.2,177.7 "/>
<rect x="182" y="191.3" fill="#01A2A6" width="3.6" height="5.5"/>
<rect x="180.7" y="196.8" fill="#01A2A6" width="5.8" height="17.1"/>
<rect x="182.9" y="213.3" fill="#A6D1E7" width="2.6" height="3.6"/>
<rect x="181" y="216.6" fill="#01A2A6" width="4.8" height="21.5"/>
<rect x="183.3" y="237.7" fill="#01A2A6" width="2.2" height="8.1"/>
<rect x="71.2" y="191.6" fill="#01A2A6" width="112.6" height="2.5"/>
<rect x="73.8" y="216.8" fill="#01A2A6" width="112.5" height="5"/>
<polygon fill="#01A2A6" points="274.1,165.3 288.8,177.7 276.1,177.7 276.1,191.2 266.8,191.5 267.7,175.2 277.2,174.7 263.7,166.2 
	"/>
<polygon fill="#01A2A6" points="189.5,166.2 170.3,178.4 181.5,178.4 181.5,191.6 186.1,191.7 186.1,174.7 179.1,174.1 "/>
<polygon fill="none" stroke="#10273D" stroke-linecap="round" stroke-linejoin="round" points="205.7,150.2 226.5,142 247.4,150.2 
	"/>
<polyline fill="none" stroke="#10273D" stroke-linecap="round" stroke-linejoin="round" points="252.2,161.1 277.9,174.7 
	176.2,174.7 199.9,161.2 "/>
<polyline fill="none" stroke="#10273D" stroke-linecap="round" stroke-linejoin="round" points="238.1,150.2 262.1,161.1 191,161.1 
	215.4,150.2 "/>
<polyline fill="none" stroke="#10273D" stroke-linecap="round" stroke-linejoin="round" points="189.8,165.7 97.1,165.7 63.6,191.5 
	185.1,191.5 "/>
<line fill="none" stroke="#10273D" stroke-linecap="round" stroke-linejoin="round" x1="186.2" y1="174.7" x2="186.2" y2="245.4"/>
<line fill="none" stroke="#10273D" stroke-linecap="round" stroke-linejoin="round" x1="267.6" y1="174.7" x2="267.6" y2="245.4"/>
<polygon fill="none" stroke="#10273D" stroke-linecap="round" stroke-linejoin="round" points="211.1,180.1 195.9,188.3 
	257.2,188.3 242,180.1 "/>
<rect x="197.6" y="188.5" fill="none" stroke="#10273D" stroke-linecap="round" stroke-linejoin="round" width="58" height="3.7"/>
<rect x="193.1" y="192.6" fill="none" stroke="#10273D" stroke-linecap="round" stroke-linejoin="round" width="67.3" height="2.6"/>
<rect x="193.1" y="209.1" fill="none" stroke="#10273D" stroke-linecap="round" stroke-linejoin="round" width="67.3" height="2.6"/>
<rect x="193.1" y="218.3" fill="none" stroke="#10273D" stroke-linecap="round" stroke-linejoin="round" width="67.3" height="2.6"/>
<rect x="194.5" y="212.3" fill="none" stroke="#10273D" stroke-linecap="round" stroke-linejoin="round" width="64.3" height="6"/>
<rect x="196.8" y="195.4" fill="none" stroke="#10273D" stroke-linecap="round" stroke-linejoin="round" width="3.1" height="13.6"/>
<rect x="195.9" y="221.3" fill="none" stroke="#10273D" stroke-linecap="round" stroke-linejoin="round" width="5" height="3.4"/>
<rect x="214.8" y="221.3" fill="none" stroke="#10273D" stroke-linecap="round" stroke-linejoin="round" width="5" height="3.4"/>
<rect x="233.5" y="221.3" fill="none" stroke="#10273D" stroke-linecap="round" stroke-linejoin="round" width="5" height="3.4"/>
<rect x="253.4" y="221.3" fill="none" stroke="#10273D" stroke-linecap="round" stroke-linejoin="round" width="5" height="3.4"/>
<rect x="254.3" y="195.4" fill="none" stroke="#10273D" stroke-linecap="round" stroke-linejoin="round" width="3.1" height="13.6"/>
<rect x="215.6" y="195.4" fill="none" stroke="#10273D" stroke-linecap="round" stroke-linejoin="round" width="3.1" height="13.6"/>
<rect x="234.4" y="195.4" fill="none" stroke="#10273D" stroke-linecap="round" stroke-linejoin="round" width="3.1" height="13.6"/>
<rect x="196.8" y="224.7" fill="none" stroke="#10273D" stroke-linecap="round" stroke-linejoin="round" width="3.1" height="17.8"/>
<rect x="254.3" y="224.7" fill="none" stroke="#10273D" stroke-linecap="round" stroke-linejoin="round" width="3.1" height="17.8"/>
<rect x="215.6" y="224.7" fill="none" stroke="#10273D" stroke-linecap="round" stroke-linejoin="round" width="3.1" height="17.8"/>
<rect x="234.4" y="224.7" fill="none" stroke="#10273D" stroke-linecap="round" stroke-linejoin="round" width="3.1" height="17.8"/>
<rect x="70.8" y="191.6" fill="none" stroke="#10273D" stroke-linecap="round" stroke-linejoin="round" width="115.4" height="5.4"/>
<line fill="none" stroke="#10273D" stroke-linecap="round" stroke-linejoin="round" x1="186.5" y1="169.6" x2="198.6" y2="169.6"/>
<line fill="none" stroke="#10273D" stroke-linecap="round" stroke-linejoin="round" x1="213.9" y1="169.6" x2="233.6" y2="169.6"/>
<line fill="none" stroke="#10273D" stroke-linecap="round" stroke-linejoin="round" x1="202.2" y1="169.6" x2="206.2" y2="169.6"/>
<line fill="none" stroke="#10273D" stroke-linecap="round" stroke-linejoin="round" x1="241.2" y1="169.6" x2="245.2" y2="169.6"/>
<line fill="none" stroke="#10273D" stroke-linecap="round" stroke-linejoin="round" x1="251.5" y1="169.6" x2="253.5" y2="169.6"/>
<rect x="70.6" y="213.6" fill="none" stroke="#10273D" stroke-linecap="round" stroke-linejoin="round" width="115.1" height="3.3"/>
<line fill="none" stroke="#10273D" stroke-linecap="round" stroke-linejoin="round" x1="74.5" y1="197.5" x2="74.5" y2="213.2"/>
<line fill="none" stroke="#10273D" stroke-linecap="round" stroke-linejoin="round" x1="74.5" y1="217.7" x2="74.5" y2="238.7"/>
<rect x="84.7" y="200.9" fill="none" stroke="#10273D" width="5.6" height="8.2"/>
<rect x="88.3" y="221.3" fill="none" stroke="#10273D" width="8.2" height="12"/>
<rect x="114.3" y="221.3" fill="none" stroke="#10273D" width="8.2" height="12"/>
<rect x="141.5" y="221.3" fill="none" stroke="#10273D" width="8.2" height="12"/>
<rect x="168.4" y="221.3" fill="none" stroke="#10273D" width="8.2" height="12"/>
<rect x="94.2" y="200.9" fill="none" stroke="#10273D" width="5.6" height="8.2"/>
<rect x="111.3" y="200.9" fill="none" stroke="#10273D" width="5.6" height="8.2"/>
<rect x="120.8" y="200.9" fill="none" stroke="#10273D" width="5.6" height="8.2"/>
<rect x="137.5" y="200.9" fill="none" stroke="#10273D" width="5.6" height="8.2"/>
<rect x="147" y="200.9" fill="none" stroke="#10273D" width="5.6" height="8.2"/>
<rect x="164.1" y="200.9" fill="none" stroke="#10273D" width="5.6" height="8.2"/>
<rect x="173.6" y="200.9" fill="none" stroke="#10273D" width="5.6" height="8.2"/>
<polyline fill="none" stroke="#10273D" points="187.4,246 73.4,246 73.4,238.3 187.4,238.3 "/>
<polyline fill="none" stroke="#10273D" stroke-linecap="round" stroke-linejoin="round" points="262,165.7 357.5,165.7 390.9,191.5 
	269.5,191.5 "/>
<rect x="268.3" y="191.6" fill="none" stroke="#10273D" stroke-linecap="round" stroke-linejoin="round" width="115.4" height="5.4"/>
<rect x="268.8" y="213.6" fill="none" stroke="#10273D" stroke-linecap="round" stroke-linejoin="round" width="115.1" height="3.3"/>
<line fill="none" stroke="#10273D" stroke-linecap="round" stroke-linejoin="round" x1="380" y1="197.5" x2="380" y2="213.2"/>
<line fill="none" stroke="#10273D" stroke-linecap="round" stroke-linejoin="round" x1="380" y1="217.7" x2="380" y2="238.7"/>
<rect x="364.2" y="200.9" fill="none" stroke="#10273D" width="5.6" height="8.2"/>
<rect x="358" y="221.3" fill="none" stroke="#10273D" width="8.2" height="12"/>
<rect x="332.1" y="221.3" fill="none" stroke="#10273D" width="8.2" height="12"/>
<rect x="304.8" y="221.3" fill="none" stroke="#10273D" width="8.2" height="12"/>
<rect x="278" y="221.3" fill="none" stroke="#10273D" width="8.2" height="12"/>
<rect x="354.7" y="200.9" fill="none" stroke="#10273D" width="5.6" height="8.2"/>
<rect x="337.6" y="200.9" fill="none" stroke="#10273D" width="5.6" height="8.2"/>
<rect x="328.1" y="200.9" fill="none" stroke="#10273D" width="5.6" height="8.2"/>
<rect x="311.4" y="200.9" fill="none" stroke="#10273D" width="5.6" height="8.2"/>
<rect x="301.8" y="200.9" fill="none" stroke="#10273D" width="5.6" height="8.2"/>
<rect x="284.8" y="200.9" fill="none" stroke="#10273D" width="5.6" height="8.2"/>
<rect x="275.3" y="200.9" fill="none" stroke="#10273D" width="5.6" height="8.2"/>
<polyline fill="none" stroke="#10273D" points="267.2,246 381.1,246 381.1,238.3 267.2,238.3 "/>
<rect x="186.5" y="242.7" fill="none" stroke="#10273D" stroke-linecap="round" stroke-linejoin="round" width="80.7" height="3.3"/>
<line fill="none" stroke="#10273D" stroke-linecap="round" stroke-linejoin="round" x1="201.5" y1="156.5" x2="222.2" y2="156.5"/>
<line fill="none" stroke="#10273D" stroke-linecap="round" stroke-linejoin="round" x1="226.8" y1="156.5" x2="229.7" y2="156.5"/>
<line fill="none" stroke="#10273D" stroke-linecap="round" stroke-linejoin="round" x1="239.3" y1="156.5" x2="242.2" y2="156.5"/>
<path fill="#FFFFFF" d="M351.1,162v8.8l-7.5,0.3c0,0-2,3.6-1.4,7.4c0.6,3.8,0.6,7.2,1.4,8.5c0.9,1.4,4.3,1.4,4.3,1.4l2.9,2.8
	l-12.4,1.9l-0.6,3.6l0.9,3l-1.4,0.3l-0.3,5.8l-3.5,0.6l-0.3,7.4h-39.8l-0.6,3.8l-11.8-0.3v4.4l-5.5-0.3l3.2,4.1
	c0,0-6.3,7.2-5.2,11.3c1.2,4.1,5.8,9.6,5.8,9.6h135.9l-12.1-27l-13.6-8.3l0.6-4.4l-3.2-1.7l-1.2-5.5l-0.9-5.8l-12.4-1.4l3.2-4.1
	c0,0,4.9-0.8,5.2-1.9c0.3-1.1,3.8-13.8-1.7-15.7C373.6,168.9,351.1,162,351.1,162z"/>
<path fill="#29D9C2" d="M444.6,245.1c0,0,4-4.7,4-7c0-2.3-175.1,0-175.1,0s3.2,8,5.8,8.4C281.8,246.9,444.6,245.1,444.6,245.1z"/>
<rect x="281.8" y="217.6" fill="#29D9C2" width="161.3" height="3.9"/>
<path fill="#29D9C2" d="M397.8,233.5c0-0.5-0.4-0.8-0.9-0.8H274.4c-0.5,0-0.9,0.4-0.9,0.8l0,0c0,0.5,0.4,0.8,0.9,0.8h122.5
	C397.4,234.4,397.8,234,397.8,233.5L397.8,233.5z"/>
<path fill="#A6D1E7" d="M409.5,233.4c0,0.6-0.5,1-1.1,1h-4.6c-0.6,0-1.1-0.5-1.1-1l0,0c0-0.6,0.5-1,1.1-1h4.6
	C409.1,232.4,409.5,232.9,409.5,233.4L409.5,233.4z"/>
<path fill="#FFFFFF" d="M66.3,209.7c0,0,12.7,0,14.6,8.8s0.5,10.4,0.5,10.4s6.1,1.6,7.2,3.3c1.2,1.7,1.6,2.4,1.6,2.4
	s7.6-9.7,16.4-6.8c8.8,2.9,12.2,13.3,13.7,20.9L4.6,248.1"/>
<path fill="#BDF271" d="M51.2,220.4c0,0,0.8-0.3,3,3.7c-0.4-4.2,3.5-15.1,18.7-13.9c-10.4-1.2-12.3-1.5-15.6,0.7
	C50.4,215.3,51.2,220.4,51.2,220.4"/>
<path fill="#BDF271" d="M92.9,237.4c0,0,8.4-10.7,18-7.6c-9.2-4.5-17.3-0.8-19.6,1.5c-0.6,2.1,0.6,4.4,0.6,4.4L92.9,237.4"/>
<path fill="#BDF271" d="M79.5,228.6c0,0-8.1,0.4-10.4,7.9c2.5-3.9,8.1-6.4,13.5-5.3c2.7,0.3,3.3-2.6-1.3-2.7
	C80.8,228.4,79.5,228.6,79.5,228.6z"/>
<path fill="#BDF271" d="M44,220.2c0,0-7.2,4.7-1.2,11c3.2,3.3,6.9,0,12.4,2.2c5.5,2.2,3.2,5,4,7.4c0.9,2.5,13.3,1.1,15,3
	c1.7,1.9,3.5,2.5,3.5,2.5H5.6c0,0-1.9-6.7,4.2-10.9l3.9-2.2h4.8c0,0,7.5-11.1,19.8-7.2C41.4,220.2,41.8,221,44,220.2z"/>
<path fill="#A5D650" d="M17.5,234.2c0,0-6.5-0.4-5.9,11.8c10.1,0,37.1-1,37.1-1s1.6-5.8-7.2-6.5c-8.8-0.7-9.7-2.5-8.5-6.7
	C34,227.6,27,222,17.5,234.2z"/>
<g>
	<g>
		<path fill="#2F2933" d="M119.5,247c-0.6,0-1.1-0.5-1.1-1.1l0,0c0-0.1,0-0.3,0-0.4l0,0c0-5.6-1.9-9.7-4.8-12.4l0,0
			c-2.9-2.7-6.9-4.2-11.2-4.2l0,0c-4.5,0-8.5,1.8-11.3,4.6l0,0c-0.2,0.2-0.5,0.3-0.9,0.3l0,0c-0.3,0-0.6-0.1-0.8-0.4l0,0
			c-2-2.2-5-3.7-8.4-3.7l0,0c-0.4,0-0.7-0.2-0.9-0.5l0,0c-0.2-0.3-0.3-0.7-0.1-1l0,0c0.6-1.5,1-3.2,1-5l0,0c0-3.8-1.6-7.2-4.2-9.7
			l0,0c-2.6-2.5-6.2-4-10.2-4l0,0c-7,0-12.9,4.8-14.2,11.1l0,0c-0.1,0.4-0.4,0.7-0.7,0.8l0,0c-0.4,0.1-0.8,0.1-1.1-0.2l0,0
			c-1.2-0.9-2.7-1.4-4.3-1.4l0,0c-2.7,0-5,1.4-6.2,3.5l0,0c-0.2,0.3-0.4,0.5-0.7,0.5l0,0c-0.3,0.1-0.6,0-0.9-0.1l0,0
			c-1.9-1.2-4.1-1.8-6.4-1.8l0,0c-3.3,0-6.2,1.3-8.4,3.3l0,0c-2.1,2-3.5,4.9-3.5,8l0,0c0,0.6-0.5,1.1-1.2,1.1l0,0
			c-0.6,0-1.2-0.5-1.2-1.1l0,0c0-7.4,6.3-13.5,14.1-13.5l0,0c2.4,0,4.7,0.6,6.7,1.6l0,0c1.7-2.2,4.5-3.7,7.6-3.7l0,0
			c1.6,0,3,0.4,4.3,1l0,0c2.1-6.6,8.5-11.3,16-11.3l0,0c9.2,0,16.7,7.1,16.7,16l0,0c0,1.5-0.2,3-0.6,4.4l0,0c3,0.4,5.6,1.7,7.7,3.5
			l0,0c3.2-2.8,7.5-4.5,12.1-4.5l0,0c4.9,0,9.5,1.6,12.8,4.8l0,0c3.4,3.2,5.5,7.9,5.4,14l0,0c0,0.1,0,0.3,0,0.4l0,0
			C120.7,246.5,120.2,247,119.5,247L119.5,247C119.5,247,119.5,247,119.5,247L119.5,247z"/>
	</g>
</g>
<g>
	<g>
		<path fill="#2F2933" d="M91.7,246.2c-0.6-0.2-0.9-0.9-0.6-1.4l0,0c0.2-0.6,0.4-1.1,0.6-1.7l0,0h0c0.1-0.6,0.8-1,1.4-0.8l0,0
			c0.6,0.1,1,0.7,0.9,1.3l0,0c-0.2,0.7-0.4,1.4-0.7,2.1l0,0c-0.2,0.4-0.6,0.7-1.1,0.7l0,0C92,246.3,91.9,246.3,91.7,246.2
			L91.7,246.2z"/>
	</g>
</g>
<g>
	<g>
		<path fill="#2F2933" d="M91.9,239.5c-0.6-5.5-5.4-9.8-11.3-9.8l0,0c-1.6,0-3.1,0.3-4.4,0.9l0,0l0,0c-0.6,0.2-1.3,0-1.5-0.6l0,0
			c-0.2-0.6,0-1.2,0.6-1.4l0,0c1.6-0.7,3.4-1,5.3-1l0,0c7.1,0,13,5.2,13.6,11.8l0,0c0.1,0.6-0.4,1.1-1,1.2l0,0c0,0-0.1,0-0.1,0l0,0
			C92.5,240.5,92,240.1,91.9,239.5L91.9,239.5z"/>
	</g>
</g>
<path fill="none" stroke="#10273D" stroke-linecap="round" stroke-linejoin="round" d="M54.6,226.5c0-4.3-3.7-7.8-8.2-7.8
	c-4.5,0-8.2,3.5-8.2,7.8"/>
<polygon fill="#29D9C2" points="387.1,205.6 387.1,205.6 337,205.6 337,205.6 337,199.3 337,199.3 387.1,199.3 387.1,199.3 "/>
<polygon fill="#29D9C2" points="365.5,168.4 365.5,63.8 369,63.3 369,169.5 "/>
<polygon fill="#29D9C2" points="354,168.4 354,63.8 357.4,63.3 357.4,169.5 "/>
<path fill="#29D9C2" d="M356.9,61.4c0-0.4,1.6-15.5,3.2-16.4c1.6-0.8,4.9,1.5,4.9,1.5l0.7,14.6c0,0-2.6-3.4-4.5-2.8
	C359.3,59,356.9,61.4,356.9,61.4z"/>
<path fill="#29D9C2" d="M369.5,182.1c0,0.9-0.8,1.7-1.7,1.7h-12.1c-1,0-1.7-0.7-1.7-1.7v-6.6c0-0.9,0.8-1.7,1.7-1.7h12.1
	c1,0,1.7,0.7,1.7,1.7V182.1z"/>
<path fill="#29D9C2" d="M382,182.1c0,0.9-0.8,1.7-1.7,1.7h-4.9c-1,0-1.7-0.7-1.7-1.7v-6.6c0-0.9,0.8-1.7,1.7-1.7h4.9
	c1,0,1.7,0.7,1.7,1.7V182.1z"/>
<path fill="#29D9C2" d="M350.2,182.1c0,0.9-0.8,1.7-1.7,1.7h-4.9c-1,0-1.7-0.7-1.7-1.7v-6.6c0-0.9,0.8-1.7,1.7-1.7h4.9
	c1,0,1.7,0.7,1.7,1.7V182.1z"/>
<path fill="none" stroke="#10273D" stroke-linecap="round" stroke-linejoin="round" d="M357,62.6V52.3c0-1.6,1.6-7.3,3.5-7.3h1.9
	c1.9,0,3.5,5.7,3.5,7.3v11.8"/>
<path fill="none" stroke="#10273D" stroke-linecap="round" stroke-linejoin="round" d="M364.2,42.1c0,1.5-1.3,2.7-2.8,2.7l0,0
	c-1.6,0-2.8-1.2-2.8-2.7l0,0c0-1.5,1.3-2.7,2.8-2.7l0,0C363,39.5,364.2,40.7,364.2,42.1L364.2,42.1z"/>
<path fill="none" stroke="#10273D" stroke-linecap="round" stroke-linejoin="round" d="M357.9,169.9V67.2c0-1.5-1.3-4.3-2.8-4.3
	h-1.5c-1.6,0-2.8,2.8-2.8,4.3v102.7H357.9z"/>
<path fill="none" stroke="#10273D" stroke-linecap="round" stroke-linejoin="round" d="M365,169.9V63.5c0-1.5-1.3-4.8-2.8-4.8h-1.5
	c-1.6,0-2.8,3.4-2.8,4.8v106.4H365z"/>
<path fill="none" stroke="#10273D" stroke-linecap="round" stroke-linejoin="round" d="M372.6,169.9V67.2c0-1.5-1.3-4.3-2.8-4.3
	h-1.5c-1.6,0-2.8,2.8-2.8,4.3v102.7H372.6z"/>
<path fill="none" stroke="#10273D" stroke-linecap="round" stroke-linejoin="round" d="M381.4,185c0,1.5-1.3,2.7-2.8,2.7h-33.5
	c-1.6,0-2.8-1.2-2.8-2.7v-11.9c0-1.5,1.3-2.7,2.8-2.7h33.5c1.6,0,2.8,1.2,2.8,2.7V185z"/>
<polyline fill="none" stroke="#10273D" stroke-linecap="round" stroke-linejoin="round" points="347.4,187.6 352.2,193 372,193 
	376,188.4 "/>
<polygon fill="none" stroke="#10273D" stroke-linecap="round" stroke-linejoin="round" points="385.6,199.9 385.6,199.9 
	338.5,199.9 338.5,199.9 338.5,193.5 338.5,193.5 385.6,193.5 385.6,193.5 "/>
<polygon fill="none" stroke="#10273D" stroke-linecap="round" stroke-linejoin="round" points="387.1,206.4 387.1,206.4 337,206.4 
	337,206.4 337,199.9 337,199.9 387.1,199.9 387.1,199.9 "/>
<polygon fill="none" stroke="#10273D" stroke-linecap="round" stroke-linejoin="round" points="390.5,212.9 390.5,212.9 
	333.6,212.9 333.6,212.9 333.6,206.4 333.6,206.4 390.5,206.4 390.5,206.4 "/>
<path fill="none" stroke="#10273D" stroke-linecap="round" stroke-linejoin="round" d="M293.1,216.8v-3.2c1.1,0,138.2,0,138.2,0v3.3
	"/>
<path fill="none" stroke="#10273D" stroke-linecap="round" stroke-linejoin="round" d="M281.5,220.8v-3.5c1.3,0,161.4,0,161.4,0v3.6
	"/>
<line fill="none" stroke="#10273D" stroke-linecap="round" stroke-linejoin="round" x1="361.7" y1="39.5" x2="361.7" y2="21.6"/>
<polygon fill="none" stroke="#10273D" stroke-linecap="round" stroke-linejoin="round" points="275.5,221.4 446.9,221.4 444,225.8 
	279,225.8 "/>
<path fill="none" stroke="#10273D" stroke-linecap="round" stroke-linejoin="round" d="M279,225.8c0,0-5.2,3-5.2,10.2
	c0,7.2,6.1,9.9,6.1,9.9h163.9c0,0,4.9-2.2,4.9-11c0-8.8-4.6-9.1-4.6-9.1"/>
<g>
	<g>
		<path fill="#2F2933" d="M6.1,246.5H1.2c-0.3,0-0.6-0.1-0.8-0.3l0,0c-0.2-0.2-0.3-0.5-0.3-0.8l0,0c0-0.1,0-0.2,0-0.3l0,0
			c0.2-7.6,6.7-13.7,14.7-13.7l0,0c1.9,0,3.7,0.3,5.4,1l0,0c0.6,0.2,0.9,0.9,0.6,1.4l0,0c-0.2,0.6-0.9,0.8-1.5,0.6l0,0
			c-1.4-0.5-2.9-0.8-4.6-0.8l0,0c-6.5,0-11.8,4.7-12.4,10.7l0,0h3.7h47.6c0.6,0,1.2,0.5,1.2,1.1l0,0c0,0.6-0.5,1.1-1.2,1.1l0,0H6.1
			L6.1,246.5z"/>
	</g>
</g>
<g>
	<g>
		<path fill="#2F2933" d="M58.9,246.2c-0.6,0-1.2-0.5-1.2-1.1l0,0c0-0.6,0.5-1.1,1.2-1.1l0,0h5.5c0.6,0,1.2,0.5,1.2,1.1l0,0
			c0,0.6-0.5,1.1-1.2,1.1l0,0H58.9L58.9,246.2z"/>
	</g>
</g>
</svg>
