<?xml version="1.0" encoding="utf-8"?>
<!-- Generator: Adobe Illustrator 14.0.0, SVG Export Plug-In  -->
<!DOCTYPE svg PUBLIC "-//W3C//DTD SVG 1.1//EN" "http://www.w3.org/Graphics/SVG/1.1/DTD/svg11.dtd" [
	<!ENTITY ns_flows "http://ns.adobe.com/Flows/1.0/">
]>
<svg version="1.1"
	 xmlns="http://www.w3.org/2000/svg" xmlns:xlink="http://www.w3.org/1999/xlink" xmlns:a="http://ns.adobe.com/AdobeSVGViewerExtensions/3.0/"
	 x="0px" y="0px" width="450px" height="250px" viewBox="-0.236 -0.99 792 596" enable-background="new -0.236 -0.99 792 596"
	 xml:space="preserve">
<defs>
</defs>
<g>
	<g>
		<path fill="#2F2933" d="M171.892,296.795c-0.875,0-1.655-0.736-1.926-1.817l0,0c-0.709-2.825-1.098-5.845-1.097-8.977l0,0
			c0.001-11.52,5.179-21.464,12.677-26.121l0,0c0.588-21.675,14.294-39.008,31.12-39.01l0,0c10.466,0.001,19.736,6.72,25.377,17.011
			l0,0c2.124-1.159,4.46-1.801,6.902-1.8l0,0c7.951,0.005,14.684,6.75,16.992,16.088l0,0c0.449-0.031,0.903-0.049,1.362-0.049l0,0
			c14.401,0.003,26.075,15.168,26.076,33.882l0,0c0,3.061-0.318,6.028-0.905,8.847l0,0c-0.239,1.151-1.038,1.946-1.956,1.946l0,0
			H171.892L171.892,296.795z M286.515,294.163v-2.632V294.163L286.515,294.163z M284.909,291.531
			c0.271-1.789,0.414-3.636,0.414-5.529l0,0c-0.001-7.911-2.461-15.05-6.451-20.236l0,0c-3.992-5.183-9.485-8.38-15.574-8.382l0,0
			c-0.885,0-1.763,0.076-2.638,0.212l0,0c-1.039,0.16-2.004-0.738-2.222-2.067l0,0c-1.323-8.096-6.863-14.19-13.495-14.185l0,0
			c-2.411,0-4.663,0.8-6.632,2.204l0,0c-0.942,0.674-2.118,0.278-2.69-0.906l0,0c-4.798-9.919-13.279-16.51-22.957-16.508l0,0
			c-7.486,0.001-14.246,3.935-19.154,10.309l0,0c-4.906,6.377-7.934,15.161-7.935,24.889l0,0c0,0.038,0.001,0.125,0.002,0.259l0,0
			c0.005,1.081-0.495,2.047-1.265,2.454l0,0c-6.68,3.516-11.398,12.018-11.396,21.957l0,0c0,1.906,0.175,3.755,0.503,5.529l0,0
			H284.909L284.909,291.531z"/>
	</g>
</g>
<path fill="none" stroke="#10273D" stroke-width="8" stroke-linecap="round" stroke-linejoin="round" d="M324.988,242.028
	c0,4.377-2.73,7.924-6.099,7.924h-17.075c-3.368,0-6.098-3.547-6.098-7.924l0,0c0-4.375,2.73-7.923,6.098-7.923h17.075
	C322.258,234.104,324.988,237.652,324.988,242.028L324.988,242.028z"/>
<path fill="none" stroke="#10273D" stroke-width="8" stroke-linecap="round" stroke-linejoin="round" d="M665.082,197.721
	c-3.682,0-7.156,1.142-10.234,3.158c-0.331-9.982-6.093-18.134-13.545-19.588c-3.617-18.905-16.763-32.919-32.432-32.919
	c-14.179,0-26.285,11.474-31.143,27.661c-0.255-0.007-0.507-0.025-0.762-0.025c-14.749,0-27.154,13.006-30.809,30.669
	c-2.561-0.693-5.213-1.061-7.933-1.061c-14.495,0-27.119,10.349-33.764,25.663h183.2c0.132-1.293,0.209-2.609,0.209-3.949
	C687.871,210.978,677.668,197.721,665.082,197.721z"/>
<path fill="#FFFFFF" d="M621.441,150.136l-6.076,97.699l39.494,1.974c0,0,1.518-83.882-3.797-95.724
	C645.746,142.243,621.441,150.136,621.441,150.136z"/>
<ellipse fill="#10273D" cx="423.97" cy="133.36" rx="2.279" ry="2.961"/>
<ellipse fill="#10273D" cx="273.126" cy="125.349" rx="2.279" ry="2.961"/>
<ellipse fill="#10273D" cx="482.781" cy="2.96" rx="2.279" ry="2.961"/>
<ellipse fill="#10273D" cx="501.771" cy="177.66" rx="2.279" ry="2.96"/>
<ellipse fill="#10273D" cx="444.04" cy="215.166" rx="2.279" ry="2.961"/>
<ellipse fill="#10273D" cx="586.848" cy="75.012" rx="2.279" ry="2.96"/>
<ellipse fill="#10273D" cx="270.847" cy="191.478" rx="2.279" ry="2.96"/>
<ellipse fill="#10273D" cx="148.549" cy="326.697" rx="2.279" ry="2.96"/>
<ellipse fill="#10273D" cx="180.453" cy="106.594" rx="2.279" ry="2.962"/>
<ellipse fill="#10273D" cx="309.588" cy="24.674" rx="2.279" ry="2.961"/>
<ellipse fill="#29D9C2" cx="681.801" cy="285.241" rx="2.279" ry="2.962"/>
<ellipse fill="#29D9C2" cx="393.146" cy="42.44" rx="2.28" ry="2.962"/>
<ellipse fill="#29D9C2" cx="343.771" cy="136.206" rx="2.279" ry="2.961"/>
<ellipse fill="#29D9C2" cx="128.039" cy="163.842" rx="2.279" ry="2.961"/>
<path fill="#FFFFFF" d="M441.039,343.531c0,0-59.75-90.794-83.042-125.006c-25.551-37.53-35.311,11.232-48.611,6.579
	c-26.331-9.211-128.616,169.746-131.654,172.379"/>
<path fill="#BDF271" d="M324.577,214.577c0,0-17.216,68.424-17.216,82.899c0,14.475,8.102,35.526,8.102,35.526l-11.14-10.525
	c0,0,2.025,9.21,2.025,17.107c0,7.895,16.204,17.104,15.191,27.632c-1.014,10.525,9.114,10.525,9.114,10.525l-4.051,17.107
	l10.465,1.755l16.437-9.381l-17.787-1.583l41.184-26.757l56.712-1.755l3.376-17.544c0,0-47.598-72.374-59.751-89.48
	c-12.152-17.105-28.356-50.002-38.483-44.738C328.628,210.628,324.577,214.577,324.577,214.577z"/>
<g>
	<g>
		<path fill="#2F2933" d="M176.046,398.941c-0.591-1.152-0.391-2.692,0.438-3.532l0,0c0.017-0.021,0.044-0.059,0.076-0.1l0,0
			c0.103-0.145,0.266-0.378,0.465-0.682l0,0c0.404-0.613,0.972-1.504,1.677-2.634l0,0c1.411-2.259,3.376-5.478,5.799-9.451l0,0
			c4.847-7.949,11.521-18.929,19.304-31.44l0,0c15.567-25.026,35.56-56.176,54.287-81.564l0,0
			c12.495-16.931,24.392-31.29,34.209-39.665l0,0c5.633-4.758,10.55-7.697,14.961-7.747l0,0c0.909,0,1.797,0.138,2.646,0.435l0,0
			c0.448,0.156,0.876,0.226,1.304,0.226l0,0c1.157,0.002,2.405-0.528,3.811-1.596l0,0c1.399-1.06,2.909-2.634,4.495-4.452l0,0
			c3.185-3.633,6.642-8.23,10.792-11.462l0,0c2.765-2.146,5.903-3.685,9.419-3.683l0,0c5.942,0.007,12.412,4.339,19.783,15.185l0,0
			c23.319,34.253,83.061,125.033,83.066,125.04l0,0h0.001c0.727,1.106,0.626,2.768-0.224,3.712l0,0
			c-0.853,0.944-2.13,0.816-2.855-0.292l0,0c-0.01-0.014-3.734-5.672-9.698-14.717l0,0c-5.966-9.047-14.162-21.466-23.086-34.951
			l0,0c-17.847-26.969-38.608-58.223-50.237-75.305l0,0c-7.024-10.298-12.444-13.416-16.749-13.409l0,0
			c-3.869-0.013-7.375,2.537-10.821,6.127l0,0c-3.439,3.566-6.658,8.041-10.086,11.259l0,0c-2.285,2.125-4.766,3.791-7.609,3.806
			l0,0c-0.775,0-1.566-0.132-2.355-0.406l0,0c-0.469-0.165-0.997-0.253-1.596-0.253l0,0c-2.682-0.04-6.75,1.968-11.524,5.875l0,0
			c-4.786,3.882-10.311,9.557-16.256,16.478l0,0c-11.897,13.844-25.491,32.664-38.72,52.255l0,0
			c-26.475,39.205-51.487,81.456-59.166,93.713l0,0c-1.039,1.655-1.728,2.728-2.217,3.377l0,0c-0.144,0.181-0.233,0.318-0.525,0.583
			l0,0c-0.345,0.3-0.735,0.441-1.121,0.441l0,0C177.08,400.113,176.437,399.701,176.046,398.941L176.046,398.941z"/>
	</g>
</g>
<path fill="#BDF271" d="M535.223,279.054c0,0-2.532,21.053-2.532,26.974c0,5.923,7.596,7.237,9.115,14.476
	c1.52,7.236,3.544,22.368,3.544,22.368s-6.075-18.421-9.114-20.395c-3.038-1.974-5.063-3.948-5.063-3.948s5.57,11.185,6.077,18.422
	c0.506,7.238,3.544,16.448,3.544,16.448s1.013,15.133,1.52,23.028c0.507,7.895,11.646,21.055,11.646,21.055h88.107
	c0,0-57.1-111.308-89.626-121.06C539.274,272.474,535.223,279.054,535.223,279.054z"/>
<path fill="none" stroke="#10273D" stroke-width="8" stroke-linecap="round" stroke-linejoin="round" d="M377.96,429.342
	c0,0,100.691-140.718,114.365-148.614c13.673-7.895,18.229,9.87,53.925-4.932c30.53-12.66,118.845,157.493,118.845,157.493
	L377.96,429.342z"/>
<path fill="#BDF271" d="M476.484,396.167c0,0,4.051-30.266,5.064-33.556c1.013-3.291,12.152-19.739,13.672-26.976
	c1.52-7.238,4.557-19.08,4.557-19.08s-2.531,33.555-6.582,44.082c-4.051,10.526-1.52,35.529-1.52,35.529H476.484z"/>
<path fill="#BDF271" d="M505.348,394.849c0,0,3.545-26.976,3.545-30.924c0-3.945,3.038-32.896,3.544-40.132
	c0.506-7.238,2.532-26.317,2.532-26.317s2.025,51.976,1.013,61.188c-1.013,9.209,0.507,13.158,1.013,17.105
	c0.507,3.948-1.013,19.737-1.013,19.737L505.348,394.849z"/>
<path fill="#FFFFFF" d="M564.479,324.808c0,0,6.076,4.936,7.595,17.766c1.519,12.828,10.633,18.749,10.633,18.749l-13.67-7.896
	C569.036,353.427,569.794,339.612,564.479,324.808z"/>
<path fill="#FFFFFF" d="M339.262,243.525c0,0,15.697,10.528,17.215,20.397c1.52,9.868,1.416,19.439,1.416,19.439
	s6.077,0,7.595,3.949c1.52,3.946,8.355,24.669,8.355,24.669s-11.392-16.776-14.431-19.736c-3.038-2.96-5.974-27.335-7.492-30.296
	C350.402,258.987,339.262,243.525,339.262,243.525z"/>
<path fill="#FFFFFF" d="M347.363,375.77c0,0-12.659-14.475-13.671-26.318c-1.014-11.841-4.559-23.686-4.559-23.686l-13.671-23.027
	c0,0,20.761,13.159,21.774,20.396c1.012,7.237,16.203,51.319,16.203,51.319L347.363,375.77z"/>
<polygon fill="#BDF271" points="267.864,394.849 288.119,290.896 279.003,398.798 "/>
<polygon fill="#BDF271" points="213.876,396.773 248.818,349.396 226.03,392.825 "/>
<polygon fill="#FFFFFF" points="365.086,358.006 397.492,338.268 433.613,357.128 425.849,361.514 458.593,385.638 444.754,385.638 
	460.619,396.604 614.722,396.604 615.734,346.82 615.229,327.084 654.725,405.376 513.449,452.747 345.844,435.64 "/>
<polygon fill="#29D9C2" points="332.819,397.175 165.728,395.201 110.285,457.045 323.603,457.045 323.603,419.192 306.893,417.876 
	"/>
<polygon fill="#29D9C2" points="460.687,397.175 627.777,395.201 683.221,457.045 469.903,457.045 469.903,419.192 486.612,417.876 
	"/>
<polygon fill="#29D9C2" points="344.325,393.535 437.495,393.535 470.916,417.218 484.081,415.903 442.56,385.638 350.402,384.981 
	"/>
<polygon fill="#29D9C2" points="374.707,359.32 419.266,359.32 454.205,383.006 439.521,385.638 413.189,367.216 367.617,367.216 
	"/>
<polygon fill="#29D9C2" points="396.48,340.24 405.089,358.665 427.368,356.032 "/>
<polygon fill="#29D9C2" points="327.615,431.693 371.668,431.693 469.396,431.693 469.903,419.192 326.602,419.192 "/>
<polygon fill="#29D9C2" points="361.035,438.931 432.432,438.931 424.33,429.721 371.668,431.693 "/>
<polygon fill="#29D9C2" points="417.41,468.977 417.41,498.804 447.454,498.804 447.454,467.663 "/>
<polygon fill="#29D9C2" points="383.652,468.977 383.652,498.804 413.696,498.804 413.696,467.663 "/>
<polygon fill="#29D9C2" points="350.232,468.977 350.232,498.804 380.276,498.804 380.276,467.663 "/>
<polygon fill="#29D9C2" points="351.246,529.125 351.246,580.059 357.491,580.059 357.491,526.875 "/>
<polygon fill="#29D9C2" points="384.665,529.125 384.665,580.059 390.91,580.059 390.91,526.875 "/>
<polygon fill="#29D9C2" points="418.338,529.125 418.338,580.059 424.583,580.059 424.583,526.875 "/>
<polygon fill="#A6D1E7" points="450.997,529.125 450.997,580.059 457.243,580.059 457.243,526.875 "/>
<polygon fill="#01A2A6" points="487.287,457.574 487.287,471.171 470.746,471.171 470.746,455.382 "/>
<polygon fill="#01A2A6" points="487.287,570.719 487.287,588.285 470.746,588.285 470.746,567.889 "/>
<polygon fill="#01A2A6" points="482.224,471.611 482.224,510.21 470.409,510.21 471.084,471.611 "/>
<polygon fill="#01A2A6" points="482.224,519.311 482.224,570.738 470.409,570.738 471.084,519.311 "/>
<polygon fill="#01A2A6" points="485.854,511.631 485.854,519.856 471.421,518.54 472.181,509.658 "/>
<rect x="477.836" y="520.296" fill="#01A2A6" width="188.703" height="3.509"/>
<rect x="480.535" y="469.852" fill="#29D9C2" width="186.004" height="9.651"/>
<rect x="499.44" y="481.257" fill="#29D9C2" width="10.465" height="18.861"/>
<rect x="530.328" y="481.257" fill="#29D9C2" width="10.465" height="18.861"/>
<rect x="622.486" y="481.257" fill="#A6D1E7" width="10.464" height="18.861"/>
<rect x="288.363" y="481.257" fill="#29D9C2" width="10.465" height="18.861"/>
<rect x="242.033" y="481.257" fill="#29D9C2" width="10.465" height="18.861"/>
<rect x="210.894" y="481.257" fill="#29D9C2" width="10.465" height="18.861"/>
<rect x="195.704" y="481.257" fill="#29D9C2" width="10.465" height="18.861"/>
<rect x="487.119" y="530.383" fill="#A6D1E7" width="14.684" height="27.633"/>
<rect x="248.278" y="530.383" fill="#29D9C2" width="14.685" height="27.633"/>
<rect x="200.429" y="530.383" fill="#29D9C2" width="14.684" height="27.633"/>
<rect x="582.314" y="530.383" fill="#A6D1E7" width="14.685" height="27.633"/>
<polygon fill="#29D9C2" points="438.002,427.087 459.774,448.799 459.774,454.722 462.307,454.722 462.307,470.84 459.774,470.84 
	459.774,493.868 461.801,493.868 461.801,511.303 460.028,511.303 460.028,518.87 462.053,518.87 462.053,579.728 452.18,577.755 
	452.434,536.305 454.205,534.661 453.698,505.71 452.687,497.486 448.889,460.313 448.635,450.116 421.546,425.115 "/>
<rect x="319.514" y="457.683" fill="#01A2A6" width="6.329" height="13.157"/>
<rect x="317.235" y="470.84" fill="#01A2A6" width="10.126" height="40.791"/>
<rect x="321.032" y="510.318" fill="#A6D1E7" width="4.558" height="8.552"/>
<rect x="317.741" y="518.211" fill="#01A2A6" width="8.355" height="51.318"/>
<rect x="321.792" y="568.542" fill="#01A2A6" width="3.798" height="19.41"/>
<rect x="124.985" y="458.362" fill="#01A2A6" width="197.692" height="5.9"/>
<rect x="129.543" y="518.559" fill="#01A2A6" width="197.471" height="11.843"/>
<polygon fill="#01A2A6" points="481.042,395.507 506.867,425.115 484.588,425.115 484.588,457.355 468.383,458.011 469.903,419.192 
	486.612,417.876 462.813,397.482 "/>
<polygon fill="#01A2A6" points="332.678,397.482 298.912,426.783 318.659,426.783 318.659,458.364 326.602,458.67 326.602,417.876 
	314.45,416.561 "/>
<polygon fill="none" stroke="#10273D" stroke-width="8" stroke-linecap="round" stroke-linejoin="round" points="361.033,359.281 
	397.634,339.704 434.234,359.281 "/>
<polyline fill="none" stroke="#10273D" stroke-width="8" stroke-linecap="round" stroke-linejoin="round" points="442.759,385.454 
	487.765,418.002 309.216,418.002 350.871,385.548 "/>
<polyline fill="none" stroke="#10273D" stroke-width="8" stroke-linecap="round" stroke-linejoin="round" points="417.855,359.325 
	460.047,385.48 335.222,385.48 378.061,359.325 "/>
<polyline fill="none" stroke="#10273D" stroke-width="8" stroke-linecap="round" stroke-linejoin="round" points="333.105,396.373 
	170.352,396.373 111.671,458.23 324.836,458.23 "/>
<line fill="none" stroke="#10273D" stroke-width="8" stroke-linecap="round" stroke-linejoin="round" x1="326.832" y1="417.831" x2="326.832" y2="587.106"/>
<line fill="none" stroke="#10273D" stroke-width="8" stroke-linecap="round" stroke-linejoin="round" x1="469.655" y1="417.831" x2="469.655" y2="587.106"/>
<polygon fill="none" stroke="#10273D" stroke-width="8" stroke-linecap="round" stroke-linejoin="round" points="370.552,430.898 
	343.866,450.543 451.514,450.543 424.829,430.898 "/>
<rect x="346.76" y="450.963" fill="none" stroke="#10273D" stroke-width="8" stroke-linecap="round" stroke-linejoin="round" width="101.861" height="8.738"/>
<rect x="338.861" y="460.628" fill="none" stroke="#10273D" stroke-width="8" stroke-linecap="round" stroke-linejoin="round" width="118.104" height="6.182"/>
<rect x="338.861" y="500.269" fill="none" stroke="#10273D" stroke-width="8" stroke-linecap="round" stroke-linejoin="round" width="118.104" height="6.184"/>
<rect x="338.861" y="522.331" fill="none" stroke="#10273D" stroke-width="8" stroke-linecap="round" stroke-linejoin="round" width="118.104" height="6.182"/>
<rect x="341.445" y="507.961" fill="none" stroke="#10273D" stroke-width="8" stroke-linecap="round" stroke-linejoin="round" width="112.937" height="14.296"/>
<rect x="345.505" y="467.465" fill="none" stroke="#10273D" stroke-width="8" stroke-linecap="round" stroke-linejoin="round" width="5.413" height="32.611"/>
<rect x="343.813" y="529.327" fill="none" stroke="#10273D" stroke-width="8" stroke-linecap="round" stroke-linejoin="round" width="8.797" height="8.152"/>
<rect x="377.029" y="529.327" fill="none" stroke="#10273D" stroke-width="8" stroke-linecap="round" stroke-linejoin="round" width="8.797" height="8.152"/>
<rect x="409.785" y="529.327" fill="none" stroke="#10273D" stroke-width="8" stroke-linecap="round" stroke-linejoin="round" width="8.796" height="8.152"/>
<rect x="444.848" y="529.327" fill="none" stroke="#10273D" stroke-width="8" stroke-linecap="round" stroke-linejoin="round" width="8.797" height="8.152"/>
<rect x="446.387" y="467.465" fill="none" stroke="#10273D" stroke-width="8" stroke-linecap="round" stroke-linejoin="round" width="5.412" height="32.611"/>
<rect x="378.476" y="467.465" fill="none" stroke="#10273D" stroke-width="8" stroke-linecap="round" stroke-linejoin="round" width="5.414" height="32.611"/>
<rect x="411.447" y="467.465" fill="none" stroke="#10273D" stroke-width="8" stroke-linecap="round" stroke-linejoin="round" width="5.413" height="32.611"/>
<rect x="345.505" y="537.479" fill="none" stroke="#10273D" stroke-width="8" stroke-linecap="round" stroke-linejoin="round" width="5.413" height="42.582"/>
<rect x="446.387" y="537.479" fill="none" stroke="#10273D" stroke-width="8" stroke-linecap="round" stroke-linejoin="round" width="5.412" height="42.582"/>
<rect x="378.476" y="537.479" fill="none" stroke="#10273D" stroke-width="8" stroke-linecap="round" stroke-linejoin="round" width="5.414" height="42.582"/>
<rect x="411.447" y="537.479" fill="none" stroke="#10273D" stroke-width="8" stroke-linecap="round" stroke-linejoin="round" width="5.413" height="42.582"/>
<rect x="124.217" y="458.231" fill="none" stroke="#10273D" stroke-width="8" stroke-linecap="round" stroke-linejoin="round" width="202.613" height="12.946"/>
<line fill="none" stroke="#10273D" stroke-width="8" stroke-linecap="round" stroke-linejoin="round" x1="327.393" y1="405.639" x2="348.51" y2="405.639"/>
<line fill="none" stroke="#10273D" stroke-width="8" stroke-linecap="round" stroke-linejoin="round" x1="375.388" y1="405.639" x2="409.944" y2="405.639"/>
<line fill="none" stroke="#10273D" stroke-width="8" stroke-linecap="round" stroke-linejoin="round" x1="354.91" y1="405.639" x2="361.949" y2="405.639"/>
<line fill="none" stroke="#10273D" stroke-width="8" stroke-linecap="round" stroke-linejoin="round" x1="423.383" y1="405.639" x2="430.423" y2="405.639"/>
<line fill="none" stroke="#10273D" stroke-width="8" stroke-linecap="round" stroke-linejoin="round" x1="441.462" y1="405.639" x2="444.981" y2="405.639"/>
<rect x="123.934" y="510.896" fill="none" stroke="#10273D" stroke-width="8" stroke-linecap="round" stroke-linejoin="round" width="202.028" height="7.896"/>
<line fill="none" stroke="#10273D" stroke-width="8" stroke-linecap="round" stroke-linejoin="round" x1="130.77" y1="472.41" x2="130.77" y2="509.909"/>
<line fill="none" stroke="#10273D" stroke-width="8" stroke-linecap="round" stroke-linejoin="round" x1="130.77" y1="520.766" x2="130.77" y2="571.095"/>
<rect x="148.695" y="480.634" fill="none" stroke="#10273D" stroke-width="8" width="9.906" height="19.735"/>
<rect x="155.023" y="529.319" fill="none" stroke="#10273D" stroke-width="8" width="14.365" height="28.617"/>
<rect x="200.593" y="529.319" fill="none" stroke="#10273D" stroke-width="8" width="14.365" height="28.617"/>
<rect x="248.442" y="529.319" fill="none" stroke="#10273D" stroke-width="8" width="14.364" height="28.617"/>
<rect x="295.531" y="529.319" fill="none" stroke="#10273D" stroke-width="8" width="14.364" height="28.617"/>
<rect x="165.405" y="480.634" fill="none" stroke="#10273D" stroke-width="8" width="9.906" height="19.735"/>
<rect x="195.313" y="480.634" fill="none" stroke="#10273D" stroke-width="8" width="9.907" height="19.735"/>
<rect x="212.023" y="480.634" fill="none" stroke="#10273D" stroke-width="8" width="9.906" height="19.735"/>
<rect x="241.392" y="480.634" fill="none" stroke="#10273D" stroke-width="8" width="9.907" height="19.735"/>
<rect x="258.101" y="480.634" fill="none" stroke="#10273D" stroke-width="8" width="9.907" height="19.735"/>
<rect x="287.977" y="480.634" fill="none" stroke="#10273D" stroke-width="8" width="9.907" height="19.735"/>
<rect x="304.687" y="480.634" fill="none" stroke="#10273D" stroke-width="8" width="9.907" height="19.735"/>
<polyline fill="none" stroke="#10273D" stroke-width="8" points="328.882,588.498 128.869,588.498 128.869,570.076 328.882,570.076 
	"/>
<polyline fill="none" stroke="#10273D" stroke-width="8" stroke-linecap="round" stroke-linejoin="round" points="459.927,396.373 
	627.477,396.373 686.156,458.23 472.991,458.23 "/>
<rect x="470.998" y="458.231" fill="none" stroke="#10273D" stroke-width="8" stroke-linecap="round" stroke-linejoin="round" width="202.612" height="12.946"/>
<rect x="471.866" y="510.896" fill="none" stroke="#10273D" stroke-width="8" stroke-linecap="round" stroke-linejoin="round" width="202.027" height="7.896"/>
<line fill="none" stroke="#10273D" stroke-width="8" stroke-linecap="round" stroke-linejoin="round" x1="667.059" y1="472.41" x2="667.059" y2="509.909"/>
<line fill="none" stroke="#10273D" stroke-width="8" stroke-linecap="round" stroke-linejoin="round" x1="667.059" y1="520.766" x2="667.059" y2="571.095"/>
<rect x="639.227" y="480.634" fill="none" stroke="#10273D" stroke-width="8" width="9.907" height="19.735"/>
<rect x="628.439" y="529.319" fill="none" stroke="#10273D" stroke-width="8" width="14.365" height="28.617"/>
<rect x="582.869" y="529.319" fill="none" stroke="#10273D" stroke-width="8" width="14.364" height="28.617"/>
<rect x="535.021" y="529.319" fill="none" stroke="#10273D" stroke-width="8" width="14.365" height="28.617"/>
<rect x="487.933" y="529.319" fill="none" stroke="#10273D" stroke-width="8" width="14.364" height="28.617"/>
<rect x="622.517" y="480.634" fill="none" stroke="#10273D" stroke-width="8" width="9.907" height="19.735"/>
<rect x="592.609" y="480.634" fill="none" stroke="#10273D" stroke-width="8" width="9.905" height="19.735"/>
<rect x="575.898" y="480.634" fill="none" stroke="#10273D" stroke-width="8" width="9.907" height="19.735"/>
<rect x="546.53" y="480.634" fill="none" stroke="#10273D" stroke-width="8" width="9.904" height="19.735"/>
<rect x="529.819" y="480.634" fill="none" stroke="#10273D" stroke-width="8" width="9.907" height="19.735"/>
<rect x="499.945" y="480.634" fill="none" stroke="#10273D" stroke-width="8" width="9.906" height="19.735"/>
<rect x="483.234" y="480.634" fill="none" stroke="#10273D" stroke-width="8" width="9.906" height="19.735"/>
<polyline fill="none" stroke="#10273D" stroke-width="8" points="468.946,588.498 668.958,588.498 668.958,570.076 468.946,570.076 
	"/>
<rect x="327.344" y="580.645" fill="none" stroke="#10273D" stroke-width="8" stroke-linecap="round" stroke-linejoin="round" width="141.603" height="7.853"/>
<line fill="none" stroke="#10273D" stroke-width="8" stroke-linecap="round" stroke-linejoin="round" x1="353.597" y1="374.478" x2="390.053" y2="374.478"/>
<line fill="none" stroke="#10273D" stroke-width="8" stroke-linecap="round" stroke-linejoin="round" x1="398.156" y1="374.478" x2="403.232" y2="374.478"/>
<line fill="none" stroke="#10273D" stroke-width="8" stroke-linecap="round" stroke-linejoin="round" x1="420.098" y1="374.478" x2="425.174" y2="374.478"/>
<path fill="#FFFFFF" d="M616.241,387.611v21.056l-13.165,0.658c0,0-3.546,8.552-2.533,17.763c1.014,9.21,1.014,17.107,2.533,20.397
	c1.518,3.288,7.595,3.288,7.595,3.288l5.063,6.582l-21.774,4.603l-1.012,8.554l1.519,7.239l-2.532,0.656l-0.505,13.818l-6.078,1.315
	l-0.506,17.763h-69.877l-1.013,9.21l-20.761-0.657v10.527l-9.621-0.659l5.57,9.872c0,0-11.14,17.104-9.115,26.974
	c2.025,9.869,10.128,23.026,10.128,23.026h238.496l-21.267-64.476l-23.8-19.738l1.013-10.527l-5.57-3.948l-2.024-13.156
	l-1.52-13.818l-21.774-3.289l5.57-9.87c0,0,8.608-1.974,9.115-4.604c0.506-2.632,6.582-32.896-3.039-37.502
	C655.737,404.061,616.241,387.611,616.241,387.611z"/>
<path fill="#29D9C2" d="M780.302,586.261c0,0,7.089-11.222,7.089-16.832c0-5.613-307.361,0-307.361,0s5.569,19.076,10.128,20.2
	C494.714,590.751,780.302,586.261,780.302,586.261z"/>
<rect x="494.714" y="520.513" fill="#29D9C2" width="283.056" height="9.211"/>
<path fill="#29D9C2" d="M698.151,558.691c0-1.091-0.681-1.972-1.521-1.972H481.692c-0.84,0-1.52,0.881-1.52,1.972l0,0
	c0,1.092,0.68,1.976,1.52,1.976h214.938C697.471,560.667,698.151,559.783,698.151,558.691L698.151,558.691z"/>
<path fill="#A6D1E7" d="M718.863,558.455c0,1.333-0.831,2.412-1.856,2.412h-8.102c-1.026,0-1.857-1.079-1.857-2.412l0,0
	c0-1.33,0.831-2.412,1.857-2.412h8.102C718.032,556.042,718.863,557.125,718.863,558.455L718.863,558.455z"/>
<path fill="#FFFFFF" d="M116.293,501.655c0,0,22.28,0,25.656,21.054c3.375,21.053,0.844,24.781,0.844,24.781
	s10.634,3.947,12.659,7.896c2.026,3.947,2.87,5.703,2.87,5.703s13.333-23.248,28.862-16.23c15.529,7.019,21.436,31.8,23.967,50.003
	l-203.05-1.316"/>
<path fill="#BDF271" d="M89.885,527.145c0,0,1.428-0.708,5.22,8.85c-0.754-9.998,6.168-36.203,32.751-33.242
	c-18.229-2.961-21.521-3.619-27.434,1.662C88.398,515.154,89.885,527.145,89.885,527.145"/>
<path fill="#BDF271" d="M163.047,567.885c0,0,14.685-25.66,31.647-18.093c-16.203-10.855-30.381-1.975-34.432,3.619
	c-1.013,4.934,1.012,10.527,1.012,10.527L163.047,567.885"/>
<path fill="#BDF271" d="M139.502,546.942c0,0-14.178,0.876-18.229,18.861c4.388-9.213,14.178-15.352,23.63-12.723
	c4.81,0.771,5.739-6.139-2.363-6.575C141.776,546.461,139.502,546.942,139.502,546.942z"/>
<path fill="#BDF271" d="M77.219,526.764c0,0-12.659,11.186-2.025,26.316c5.553,7.902,12.153,0,21.773,5.265
	c9.621,5.265,5.57,11.845,7.089,17.764c1.519,5.923,23.292,2.633,26.331,7.237c3.038,4.606,6.076,5.923,6.076,5.923H9.874
	c0,0-3.292-16.121,7.342-25.989l6.836-5.264h8.354c0,0,13.166-26.646,34.686-17.104C72.662,526.764,73.428,528.71,77.219,526.764z"
	/>
<path fill="#A5D650" d="M30.634,560.319c0,0-11.393-0.986-10.38,28.292c17.723,0,65.067-2.304,65.067-2.304
	s2.784-13.815-12.659-15.461c-15.444-1.645-16.963-5.921-14.938-16.119C59.75,544.53,47.344,531.041,30.634,560.319z"/>
<g>
	<g>
		<path fill="#2F2933" d="M209.771,590.913c-1.119-0.021-2.012-1.217-1.995-2.669l0,0c0.004-0.324,0.006-0.646,0.006-0.967l0,0
			c-0.011-13.37-3.297-23.196-8.365-29.776l0,0c-5.075-6.571-12.032-9.974-19.656-9.979l0,0
			c-7.824,0.001-14.867,4.227-19.896,11.021l0,0c-0.396,0.535-0.939,0.824-1.511,0.806l0,0c-0.571-0.018-1.104-0.343-1.478-0.9l0,0
			c-3.595-5.368-8.832-8.791-14.706-8.938l0,0c-0.663-0.017-1.274-0.45-1.644-1.166l0,0c-0.37-0.714-0.447-1.614-0.206-2.418l0,0
			c1.103-3.692,1.712-7.693,1.713-11.893l0,0c-0.001-9.097-2.831-17.302-7.417-23.266l0,0c-4.588-5.957-10.905-9.633-17.904-9.634
			l0,0c-12.303-0.006-22.556,11.41-24.841,26.518l0,0c-0.135,0.897-0.62,1.638-1.28,1.96l0,0c-0.66,0.318-1.4,0.17-1.953-0.394l0,0
			c-2.111-2.141-4.745-3.408-7.627-3.41l0,0c-4.688-0.001-8.762,3.374-10.876,8.358l0,0c-0.272,0.642-0.736,1.107-1.283,1.285l0,0
			c-0.547,0.18-1.125,0.053-1.597-0.348l0,0c-3.259-2.755-7.131-4.359-11.311-4.36l0,0c-5.741,0.001-10.918,3.015-14.682,7.902l0,0
			c-3.761,4.89-6.081,11.617-6.082,19.077l0,0c0,1.453-0.907,2.631-2.026,2.631l0,0c-1.118,0-2.025-1.178-2.025-2.631l0,0
			c0.002-17.81,11.109-32.24,24.814-32.243l0,0c4.253-0.002,8.264,1.4,11.764,3.855l0,0c2.991-5.327,7.838-8.791,13.303-8.791l0,0
			c2.733-0.001,5.319,0.872,7.592,2.411l0,0c3.654-15.68,14.854-27.079,28.11-27.086l0,0c16.223,0.002,29.37,17.085,29.372,38.164
			l0,0c0,3.632-0.396,7.146-1.128,10.478l0,0c5.21,0.894,9.9,3.958,13.503,8.466l0,0c5.619-6.651,13.1-10.722,21.301-10.718l0,0
			c8.543-0.008,16.611,3.857,22.516,11.515l0,0c5.915,7.648,9.566,19.017,9.556,33.503l0,0c0,0.346-0.002,0.694-0.006,1.046l0,0
			c-0.017,1.438-0.921,2.591-2.024,2.591l0,0C209.792,590.914,209.781,590.914,209.771,590.913L209.771,590.913z"/>
	</g>
</g>
<g>
	<g>
		<path fill="#2F2933" d="M161.008,588.999c-1.032-0.565-1.517-2.105-1.083-3.447l0,0c0.433-1.335,0.78-2.727,1.037-4.165l0,0h0.001
			c0.252-1.416,1.341-2.298,2.43-1.97l0,0c1.09,0.329,1.769,1.742,1.516,3.159l0,0c-0.309,1.73-0.729,3.409-1.249,5.018l0,0
			c-0.326,1.006-1.078,1.611-1.869,1.611l0,0C161.529,589.205,161.264,589.139,161.008,588.999L161.008,588.999z"/>
	</g>
</g>
<g>
	<g>
		<path fill="#2F2933" d="M161.387,572.97c-0.972-13.166-9.517-23.479-19.911-23.473l0,0c-2.767,0-5.393,0.726-7.785,2.04l0,0v0.001
			c-1.032,0.565-2.22-0.062-2.655-1.4l0,0c-0.437-1.338,0.046-2.882,1.076-3.449l0,0c2.879-1.581,6.049-2.459,9.364-2.458l0,0
			c12.501,0.006,22.771,12.384,23.943,28.234l0,0c0.108,1.45-0.708,2.735-1.822,2.872l0,0c-0.065,0.008-0.13,0.011-0.195,0.011l0,0
			C162.37,575.348,161.488,574.331,161.387,572.97L161.387,572.97z"/>
	</g>
</g>
<path fill="none" stroke="#10273D" stroke-width="8" stroke-linecap="round" stroke-linejoin="round" d="M95.825,541.928
	c0-10.357-6.461-18.752-14.433-18.752c-7.97,0-14.433,8.395-14.433,18.752"/>
<polygon fill="#29D9C2" points="679.536,491.783 679.536,491.783 591.604,491.783 591.604,491.783 591.604,476.748 591.604,476.748 
	679.536,476.748 679.536,476.748 "/>
<polygon fill="#29D9C2" points="641.559,402.745 641.559,152.731 647.636,151.416 647.636,405.376 "/>
<polygon fill="#29D9C2" points="621.304,402.745 621.304,152.731 627.38,151.416 627.38,405.376 "/>
<path fill="#29D9C2" d="M626.367,146.81c0-0.987,2.785-37.173,5.57-39.147c2.785-1.973,8.608,3.619,8.608,3.619l1.266,34.87
	c0,0-4.557-8.225-7.848-6.579C630.673,141.217,626.367,146.81,626.367,146.81z"/>
<path fill="#29D9C2" d="M648.647,435.64c0,2.181-1.36,3.949-3.038,3.949h-21.267c-1.678,0-3.039-1.769-3.039-3.949v-15.789
	c0-2.181,1.361-3.948,3.039-3.948h21.267c1.678,0,3.038,1.768,3.038,3.948V435.64z"/>
<path fill="#29D9C2" d="M670.422,435.64c0,2.181-1.361,3.949-3.039,3.949h-8.608c-1.678,0-3.037-1.769-3.037-3.949v-15.789
	c0-2.181,1.359-3.948,3.037-3.948h8.608c1.678,0,3.039,1.768,3.039,3.948V435.64z"/>
<path fill="#29D9C2" d="M614.722,435.64c0,2.181-1.359,3.949-3.038,3.949h-8.607c-1.679,0-3.039-1.769-3.039-3.949v-15.789
	c0-2.181,1.36-3.948,3.039-3.948h8.607c1.679,0,3.038,1.768,3.038,3.948V435.64z"/>
<path fill="none" stroke="#10273D" stroke-width="8" stroke-linecap="round" stroke-linejoin="round" d="M626.688,149.684v-24.501
	c0-3.751,2.747-17.377,6.134-17.377h3.271c3.388,0,6.133,13.625,6.133,17.377v28.207"/>
<path fill="none" stroke="#10273D" stroke-width="8" stroke-linecap="round" stroke-linejoin="round" d="M639.334,100.827
	c0,3.56-2.219,6.444-4.958,6.444l0,0c-2.738,0-4.958-2.884-4.958-6.444l0,0c0-3.558,2.22-6.441,4.958-6.441l0,0
	C637.115,94.385,639.334,97.269,639.334,100.827L639.334,100.827z"/>
<path fill="none" stroke="#10273D" stroke-width="8" stroke-linecap="round" stroke-linejoin="round" d="M628.177,406.416V160.851
	c0-3.558-2.22-10.309-4.959-10.309h-2.644c-2.738,0-4.959,6.751-4.959,10.309v245.564H628.177z"/>
<path fill="none" stroke="#10273D" stroke-width="8" stroke-linecap="round" stroke-linejoin="round" d="M640.737,406.416V151.832
	c0-3.559-2.219-11.597-4.957-11.597h-2.646c-2.737,0-4.958,8.039-4.958,11.597v254.584H640.737z"/>
<path fill="none" stroke="#10273D" stroke-width="8" stroke-linecap="round" stroke-linejoin="round" d="M653.963,406.416V160.851
	c0-3.558-2.222-10.309-4.96-10.309h-2.645c-2.738,0-4.958,6.751-4.958,10.309v245.564H653.963z"/>
<path fill="none" stroke="#10273D" stroke-width="8" stroke-linecap="round" stroke-linejoin="round" d="M669.499,442.618
	c0,3.559-2.222,6.443-4.959,6.443h-58.842c-2.738,0-4.958-2.885-4.958-6.443v-28.35c0-3.558,2.22-6.441,4.958-6.441h58.842
	c2.737,0,4.959,2.884,4.959,6.441V442.618z"/>
<polyline fill="none" stroke="#10273D" stroke-width="8" stroke-linecap="round" stroke-linejoin="round" points="609.83,448.844 
	618.26,461.732 652.97,461.732 659.912,450.776 "/>
<polygon fill="none" stroke="#10273D" stroke-width="8" stroke-linecap="round" stroke-linejoin="round" points="676.771,478.268 
	676.771,478.268 594.128,478.268 594.128,478.268 594.128,462.804 594.128,462.804 676.771,462.804 676.771,462.804 "/>
<polygon fill="none" stroke="#10273D" stroke-width="8" stroke-linecap="round" stroke-linejoin="round" points="679.415,493.729 
	679.415,493.729 591.484,493.729 591.484,493.729 591.484,478.268 591.484,478.268 679.415,478.268 679.415,478.268 "/>
<polygon fill="none" stroke="#10273D" stroke-width="8" stroke-linecap="round" stroke-linejoin="round" points="685.366,509.194 
	685.366,509.194 585.534,509.194 585.534,509.194 585.534,493.729 585.534,493.729 685.366,493.729 685.366,493.729 "/>
<path fill="none" stroke="#10273D" stroke-width="8" stroke-linecap="round" stroke-linejoin="round" d="M514.461,518.557v-7.646
	c1.983,0,242.639,0,242.639,0v7.972"/>
<path fill="none" stroke="#10273D" stroke-width="8" stroke-linecap="round" stroke-linejoin="round" d="M494.125,528.191v-8.261
	c2.316,0,283.311,0,283.311,0v8.698"/>
<line fill="none" stroke="#10273D" stroke-width="8" stroke-linecap="round" stroke-linejoin="round" x1="634.883" y1="94.385" x2="634.883" y2="51.776"/>
<polygon fill="none" stroke="#10273D" stroke-width="8" stroke-linecap="round" stroke-linejoin="round" points="483.574,529.724 
	784.353,529.724 779.289,540.253 489.65,540.253 "/>
<path fill="none" stroke="#10273D" stroke-width="8" stroke-linecap="round" stroke-linejoin="round" d="M489.65,540.253
	c0,0-9.115,7.236-9.115,24.343c0,17.107,10.635,23.687,10.635,23.687h287.612c0,0,8.608-5.265,8.608-26.318
	c0-21.053-8.102-21.711-8.102-21.711"/>
<g>
	<g>
		<path fill="#2F2933" d="M10.632,589.597H2.025c-0.534,0-1.055-0.278-1.432-0.771l0,0C0.215,588.336,0,587.658,0,586.965l0,0
			c-0.001-0.235,0.001-0.473,0.004-0.71l0,0c0.293-18.208,11.739-32.842,25.819-32.844l0,0c3.346,0,6.551,0.829,9.489,2.338l0,0
			c1.041,0.537,1.55,2.063,1.139,3.417l0,0c-0.411,1.349-1.587,2.011-2.627,1.479l0,0c-2.477-1.271-5.17-1.971-8-1.971l0,0
			c-11.341-0.004-20.66,11.271-21.681,25.659l0,0h6.49l83.55,0.001c1.119,0,2.026,1.177,2.026,2.631l0,0
			c0,1.453-0.907,2.632-2.026,2.632l0,0H10.632L10.632,589.597z"/>
	</g>
</g>
<g>
	<g>
		<path fill="#2F2933" d="M103.297,588.94c-1.119,0-2.025-1.179-2.025-2.632l0,0c0-1.454,0.906-2.633,2.025-2.633l0,0h9.621
			c1.119,0,2.025,1.179,2.025,2.633l0,0c0,1.453-0.906,2.632-2.025,2.632l0,0H103.297L103.297,588.94z"/>
	</g>
</g>
</svg>
