<?xml version="1.0" encoding="utf-8"?>
<!-- Generator: Adobe Illustrator 14.0.0, SVG Export Plug-In  -->
<!DOCTYPE svg PUBLIC "-//W3C//DTD SVG 1.1//EN" "http://www.w3.org/Graphics/SVG/1.1/DTD/svg11.dtd" [
	<!ENTITY ns_flows "http://ns.adobe.com/Flows/1.0/">
]>
<svg version="1.1"
	 xmlns="http://www.w3.org/2000/svg" xmlns:xlink="http://www.w3.org/1999/xlink" xmlns:a="http://ns.adobe.com/AdobeSVGViewerExtensions/3.0/"
	 x="0px" y="0px" width="586px" height="94px" viewBox="-0.75 0 586 94" enable-background="new -0.75 0 586 94"
	 xml:space="preserve">
<defs>
</defs>
<polygon fill="#23C6B6" points="102.5,38.75 0,94 585.25,94 585.25,72.75 465.75,0 388.5,0 210.75,78.5 "/>
<polygon fill="#28D7C1" points="118,75.75 105.75,48.25 195.25,79.75 176.5,83.75 164.75,74 141.5,67.25 141.25,81.25 132.75,70.25 
	121.5,63 122.25,67.25 "/>
<polygon fill="#28D7C1" points="388.5,0 399.75,61.75 409.75,47 432,70.25 445.25,50 458.25,72.5 466.5,74 475.75,94 580.25,94 
	559.25,72.25 448.75,0 "/>
<polygon fill="#23C6B6" points="434.5,26.25 437.5,40.75 449.25,45.25 463.5,64.5 456,42.75 "/>
</svg>
