<?xml version="1.0" encoding="utf-8"?>
<!-- Generator: Adobe Illustrator 14.0.0, SVG Export Plug-In  -->
<!DOCTYPE svg PUBLIC "-//W3C//DTD SVG 1.1//EN" "http://www.w3.org/Graphics/SVG/1.1/DTD/svg11.dtd" [
	<!ENTITY ns_flows "http://ns.adobe.com/Flows/1.0/">
]>
<svg version="1.1"
	 xmlns="http://www.w3.org/2000/svg" xmlns:xlink="http://www.w3.org/1999/xlink" xmlns:a="http://ns.adobe.com/AdobeSVGViewerExtensions/3.0/"
	 x="0px" y="0px" width="86px" height="80px" viewBox="-0.804 -0.591 86 80" enable-background="new -0.804 -0.591 86 80"
	 xml:space="preserve">
<defs>
</defs>
<line fill="none" stroke="#BDF271" stroke-width="2" x1="57.673" y1="48.143" x2="62.977" y2="48.458"/>
<line fill="none" stroke="#BDF271" stroke-width="2" x1="58.296" y1="57.285" x2="64.848" y2="59.492"/>
<path fill="none" stroke="#BDF271" stroke-width="2" d="M10.248,68.32c0,0,3.12,6.306,8.424,5.36
	c5.304-0.946,5.928-7.252,13.104-5.36c7.176,1.892,10.296,5.045,17.472,4.099c7.178-0.946,10.297-4.729,10.297-4.729"/>
<path fill="none" stroke="#BDF271" stroke-width="2" d="M52.263,20.152c0,0-2.496-13.242,6.657-17.656
	c9.132-4.404,13.521,2.313,13.521,2.313"/>
<path fill="none" stroke="#BDF271" stroke-width="2" d="M52.055,21.834c0,0-8.227-13.865-16.641-10.299
	c-6.448,2.732-5.825,9.249-5.825,9.249"/>
<path fill="none" stroke="#BDF271" stroke-width="2" d="M53.719,24.146c0,0-11.649-7.776-19.553,0.631
	c-5.474,5.823-1.248,12.611-1.248,12.611"/>
<path fill="none" stroke="#BDF271" stroke-width="2" d="M54.135,21.414c0,0,7.315-18.661,22.985-10.587
	c7.176,3.697,6.761,9.163,6.761,9.163"/>
<path fill="none" stroke="#01A2A6" stroke-width="2" d="M69.108,78.408c-5.783-11.521-18.717-19.547-33.744-19.547
	c-15.028,0-27.961,8.025-33.743,19.547H69.108z"/>
<path fill="none" stroke="#01A2A6" stroke-width="2" d="M58.296,66.477c0,0,1.248-37.827-6.864-47.781
	c11.855,9.385,14.352,54.039,14.352,54.039"/>
<line fill="none" stroke="#BDF271" stroke-width="2" x1="57.672" y1="14.87" x2="61.832" y2="20.938"/>
<line fill="none" stroke="#BDF271" stroke-width="2" x1="61.416" y1="11.646" x2="67.032" y2="19.421"/>
<line fill="none" stroke="#BDF271" stroke-width="2" x1="67.032" y1="9.75" x2="70.569" y2="17.904"/>
<line fill="none" stroke="#BDF271" stroke-width="2" x1="72.857" y1="9.371" x2="74.104" y2="16.766"/>
<line fill="none" stroke="#BDF271" stroke-width="2" x1="78.682" y1="12.595" x2="78.266" y2="17.335"/>
<line fill="none" stroke="#BDF271" stroke-width="2" x1="48.311" y1="22.044" x2="50.807" y2="28.35"/>
<line fill="none" stroke="#BDF271" stroke-width="2" x1="41.238" y1="21.834" x2="46.231" y2="28.56"/>
<line fill="none" stroke="#BDF271" stroke-width="2" x1="35.622" y1="24.356" x2="41.238" y2="30.452"/>
<line fill="none" stroke="#BDF271" stroke-width="2" x1="32.086" y1="30.873" x2="36.246" y2="32.764"/>
<line fill="none" stroke="#BDF271" stroke-width="2" x1="43.319" y1="13.006" x2="43.319" y2="16.79"/>
<line fill="none" stroke="#BDF271" stroke-width="2" x1="35.414" y1="11.535" x2="37.91" y2="17.42"/>
<line fill="none" stroke="#BDF271" stroke-width="2" x1="53.511" y1="8.802" x2="56.215" y2="11.745"/>
<line fill="none" stroke="#BDF271" stroke-width="2" x1="59.96" y1="2.707" x2="61.624" y2="8.382"/>
</svg>
